<svg xmlns="http://www.w3.org/2000/svg" xmlns:xlink="http://www.w3.org/1999/xlink" width="250" zoomAndPan="magnify" viewBox="0 0 187.5 74.999997" height="100" preserveAspectRatio="xMidYMid meet" version="1.0"><defs><g/><clipPath id="24cb05fbd6"><rect x="0" width="184" y="0" height="44"/></clipPath><clipPath id="2895a4d297"><rect x="0" width="109" y="0" height="27"/></clipPath><clipPath id="48d471eb8c"><path d="M 4.871094 9.460938 L 37.664062 9.460938 L 37.664062 28.589844 L 4.871094 28.589844 Z M 4.871094 9.460938 " clip-rule="nonzero"/></clipPath><clipPath id="28468b4ea0"><path d="M 4.9375 23.738281 C 12.714844 9.824219 13.089844 9.449219 13.464844 9.523438 C 13.839844 9.523438 14.136719 9.824219 14.285156 10.347656 C 15.035156 12.21875 14.585938 23.660156 13.464844 25.53125 C 13.015625 26.128906 12.265625 26.429688 11.96875 26.28125 C 11.519531 25.980469 11.820312 23.660156 12.417969 22.089844 C 13.238281 19.621094 16.832031 13.414062 18.027344 13.113281 C 18.402344 13.039062 18.699219 13.414062 18.925781 13.789062 C 19.296875 14.386719 19.296875 15.660156 19.449219 16.929688 C 19.597656 18.949219 20.121094 23.289062 19.375 24.484375 C 19 25.082031 18.101562 25.457031 17.726562 25.382812 C 17.503906 25.308594 17.277344 24.933594 17.277344 24.484375 C 17.429688 23.214844 21.46875 17.304688 22.589844 17.078125 C 22.964844 17.003906 23.261719 17.304688 23.5625 17.679688 C 23.9375 18.277344 24.011719 19.921875 24.160156 21.117188 C 24.234375 22.464844 24.683594 24.484375 24.160156 25.234375 C 23.9375 25.757812 23.113281 26.128906 22.738281 26.054688 C 22.441406 25.980469 22.140625 25.457031 22.066406 25.007812 C 21.992188 24.484375 22.515625 23.738281 22.964844 22.914062 C 23.710938 21.640625 25.355469 18.425781 26.328125 18.351562 C 26.929688 18.277344 27.675781 19.25 27.976562 19.921875 C 28.273438 20.59375 28.050781 21.34375 28.050781 22.164062 C 28.050781 23.136719 28.273438 24.785156 27.902344 25.382812 C 27.601562 25.832031 26.777344 26.128906 26.480469 25.980469 C 26.179688 25.90625 25.882812 25.457031 25.882812 25.007812 C 25.804688 23.738281 27.976562 18.726562 28.871094 18.425781 C 29.246094 18.277344 29.621094 18.648438 29.921875 19.023438 C 30.367188 19.621094 30.445312 21.640625 30.519531 22.691406 C 30.59375 23.511719 30.816406 24.410156 30.519531 24.859375 C 30.292969 25.234375 29.472656 25.605469 29.398438 25.457031 C 29.171875 25.234375 30.894531 21.566406 31.640625 21.34375 C 32.015625 21.269531 32.539062 21.566406 32.835938 22.015625 C 33.285156 22.691406 32.761719 25.605469 33.285156 25.757812 C 33.808594 25.90625 35.457031 22.988281 36.203125 22.765625 C 36.578125 22.613281 36.953125 22.691406 37.175781 22.914062 C 37.476562 23.136719 37.699219 23.886719 37.476562 24.183594 C 37.324219 24.484375 36.128906 24.710938 35.753906 24.484375 C 35.53125 24.335938 35.378906 23.8125 35.457031 23.511719 C 35.605469 23.214844 36.128906 22.765625 36.429688 22.691406 C 36.726562 22.613281 37.175781 22.839844 37.324219 23.0625 C 37.550781 23.363281 37.550781 23.886719 37.398438 24.410156 C 37.101562 25.382812 35.457031 27.625 34.558594 28.148438 C 34.109375 28.449219 33.660156 28.597656 33.210938 28.449219 C 32.539062 28.148438 31.714844 26.878906 31.265625 25.90625 C 30.816406 24.785156 30.667969 22.613281 30.894531 21.941406 C 31.042969 21.566406 31.417969 21.34375 31.640625 21.34375 C 32.015625 21.417969 32.6875 22.164062 32.761719 22.691406 C 32.914062 23.511719 32.015625 25.234375 31.265625 25.90625 C 30.667969 26.429688 29.621094 27.101562 29.097656 26.804688 C 28.125 26.207031 27.527344 20.371094 27.976562 19.175781 C 28.125 18.726562 28.574219 18.351562 28.871094 18.425781 C 29.246094 18.425781 29.84375 19.097656 29.996094 19.699219 C 30.21875 20.667969 29.621094 22.765625 29.097656 23.8125 C 28.722656 24.632812 28.199219 25.605469 27.601562 25.832031 C 27.078125 25.980469 26.179688 25.757812 25.882812 25.234375 C 25.433594 24.484375 26.628906 20.894531 26.328125 20.820312 C 26.105469 20.746094 24.757812 25.082031 23.9375 25.757812 C 23.5625 26.054688 23.113281 26.128906 22.738281 26.054688 C 22.441406 25.90625 22.289062 25.53125 22.066406 25.007812 C 21.617188 23.738281 21.242188 18.5 21.765625 17.527344 C 21.992188 17.152344 22.289062 17.003906 22.589844 17.078125 C 22.890625 17.152344 23.488281 17.902344 23.488281 18.574219 C 23.414062 19.996094 20.269531 24.484375 19.074219 25.15625 C 18.625 25.53125 18.101562 25.679688 17.726562 25.382812 C 16.679688 24.484375 16.457031 14.835938 17.203125 13.5625 C 17.429688 13.265625 17.726562 13.113281 18.027344 13.113281 C 18.324219 13.191406 18.925781 13.863281 18.925781 14.460938 C 19 15.808594 15.933594 18.949219 14.960938 21.042969 C 14.136719 22.691406 14.0625 25.234375 13.316406 25.90625 C 12.941406 26.28125 12.34375 26.503906 11.96875 26.28125 C 11.070312 25.53125 11.445312 18.949219 11.59375 16.03125 C 11.742188 13.714844 11.96875 10.945312 12.566406 10.046875 C 12.867188 9.675781 13.238281 9.449219 13.464844 9.523438 C 13.761719 9.597656 14.210938 10.121094 14.210938 10.796875 C 14.285156 12.742188 9.574219 19.996094 8.078125 22.464844 C 7.253906 23.738281 6.730469 25.007812 6.132812 25.234375 C 5.757812 25.308594 5.160156 25.082031 5.011719 24.859375 C 4.789062 24.632812 4.9375 23.738281 4.9375 23.738281 " clip-rule="nonzero"/></clipPath><clipPath id="38807640e8"><path d="M 0.871094 0.460938 L 33.664062 0.460938 L 33.664062 19.589844 L 0.871094 19.589844 Z M 0.871094 0.460938 " clip-rule="nonzero"/></clipPath><clipPath id="58d68bf56f"><path d="M 0.9375 14.738281 C 8.714844 0.824219 9.089844 0.449219 9.464844 0.523438 C 9.839844 0.523438 10.136719 0.824219 10.285156 1.347656 C 11.035156 3.21875 10.585938 14.660156 9.464844 16.53125 C 9.015625 17.128906 8.265625 17.429688 7.96875 17.28125 C 7.519531 16.980469 7.820312 14.660156 8.417969 13.089844 C 9.238281 10.621094 12.832031 4.414062 14.027344 4.113281 C 14.402344 4.039062 14.699219 4.414062 14.925781 4.789062 C 15.296875 5.386719 15.296875 6.660156 15.449219 7.929688 C 15.597656 9.949219 16.121094 14.289062 15.375 15.484375 C 15 16.082031 14.101562 16.457031 13.726562 16.382812 C 13.503906 16.308594 13.277344 15.933594 13.277344 15.484375 C 13.429688 14.214844 17.46875 8.304688 18.589844 8.078125 C 18.964844 8.003906 19.261719 8.304688 19.5625 8.679688 C 19.9375 9.277344 20.011719 10.921875 20.160156 12.117188 C 20.234375 13.464844 20.683594 15.484375 20.160156 16.234375 C 19.9375 16.757812 19.113281 17.128906 18.738281 17.054688 C 18.441406 16.980469 18.140625 16.457031 18.066406 16.007812 C 17.992188 15.484375 18.515625 14.738281 18.964844 13.914062 C 19.710938 12.640625 21.355469 9.425781 22.328125 9.351562 C 22.929688 9.277344 23.675781 10.25 23.976562 10.921875 C 24.273438 11.59375 24.050781 12.34375 24.050781 13.164062 C 24.050781 14.136719 24.273438 15.785156 23.902344 16.382812 C 23.601562 16.832031 22.777344 17.128906 22.480469 16.980469 C 22.179688 16.90625 21.882812 16.457031 21.882812 16.007812 C 21.804688 14.738281 23.976562 9.726562 24.871094 9.425781 C 25.246094 9.277344 25.621094 9.648438 25.921875 10.023438 C 26.367188 10.621094 26.445312 12.640625 26.519531 13.691406 C 26.59375 14.511719 26.816406 15.410156 26.519531 15.859375 C 26.292969 16.234375 25.472656 16.605469 25.398438 16.457031 C 25.171875 16.234375 26.894531 12.566406 27.640625 12.34375 C 28.015625 12.269531 28.539062 12.566406 28.835938 13.015625 C 29.285156 13.691406 28.761719 16.605469 29.285156 16.757812 C 29.808594 16.90625 31.457031 13.988281 32.203125 13.765625 C 32.578125 13.613281 32.953125 13.691406 33.175781 13.914062 C 33.476562 14.136719 33.699219 14.886719 33.476562 15.183594 C 33.324219 15.484375 32.128906 15.710938 31.753906 15.484375 C 31.53125 15.335938 31.378906 14.8125 31.457031 14.511719 C 31.605469 14.214844 32.128906 13.765625 32.429688 13.691406 C 32.726562 13.613281 33.175781 13.839844 33.324219 14.0625 C 33.550781 14.363281 33.550781 14.886719 33.398438 15.410156 C 33.101562 16.382812 31.457031 18.625 30.558594 19.148438 C 30.109375 19.449219 29.660156 19.597656 29.210938 19.449219 C 28.539062 19.148438 27.714844 17.878906 27.265625 16.90625 C 26.816406 15.785156 26.667969 13.613281 26.894531 12.941406 C 27.042969 12.566406 27.417969 12.34375 27.640625 12.34375 C 28.015625 12.417969 28.6875 13.164062 28.761719 13.691406 C 28.914062 14.511719 28.015625 16.234375 27.265625 16.90625 C 26.667969 17.429688 25.621094 18.101562 25.097656 17.804688 C 24.125 17.207031 23.527344 11.371094 23.976562 10.175781 C 24.125 9.726562 24.574219 9.351562 24.871094 9.425781 C 25.246094 9.425781 25.84375 10.097656 25.996094 10.699219 C 26.21875 11.667969 25.621094 13.765625 25.097656 14.8125 C 24.722656 15.632812 24.199219 16.605469 23.601562 16.832031 C 23.078125 16.980469 22.179688 16.757812 21.882812 16.234375 C 21.433594 15.484375 22.628906 11.894531 22.328125 11.820312 C 22.105469 11.746094 20.757812 16.082031 19.9375 16.757812 C 19.5625 17.054688 19.113281 17.128906 18.738281 17.054688 C 18.441406 16.90625 18.289062 16.53125 18.066406 16.007812 C 17.617188 14.738281 17.242188 9.5 17.765625 8.527344 C 17.992188 8.152344 18.289062 8.003906 18.589844 8.078125 C 18.890625 8.152344 19.488281 8.902344 19.488281 9.574219 C 19.414062 10.996094 16.269531 15.484375 15.074219 16.15625 C 14.625 16.53125 14.101562 16.679688 13.726562 16.382812 C 12.679688 15.484375 12.457031 5.835938 13.203125 4.5625 C 13.429688 4.265625 13.726562 4.113281 14.027344 4.113281 C 14.324219 4.191406 14.925781 4.863281 14.925781 5.460938 C 15 6.808594 11.933594 9.949219 10.960938 12.042969 C 10.136719 13.691406 10.0625 16.234375 9.316406 16.90625 C 8.941406 17.28125 8.34375 17.503906 7.96875 17.28125 C 7.070312 16.53125 7.445312 9.949219 7.59375 7.03125 C 7.742188 4.714844 7.96875 1.945312 8.566406 1.046875 C 8.867188 0.675781 9.238281 0.449219 9.464844 0.523438 C 9.761719 0.597656 10.210938 1.121094 10.210938 1.796875 C 10.285156 3.742188 5.574219 10.996094 4.078125 13.464844 C 3.253906 14.738281 2.730469 16.007812 2.132812 16.234375 C 1.757812 16.308594 1.160156 16.082031 1.011719 15.859375 C 0.789062 15.632812 0.9375 14.738281 0.9375 14.738281 " clip-rule="nonzero"/></clipPath><clipPath id="63bdb85eef"><rect x="0" width="34" y="0" height="20"/></clipPath><clipPath id="cf45f85ceb"><path d="M 150.085938 13 L 181 13 L 181 31 L 150.085938 31 Z M 150.085938 13 " clip-rule="nonzero"/></clipPath><clipPath id="76c121da12"><path d="M 150.144531 26.480469 C 157.496094 13.332031 157.851562 12.976562 158.203125 13.050781 C 158.558594 13.050781 158.839844 13.332031 158.980469 13.828125 C 159.6875 15.59375 159.265625 26.410156 158.203125 28.175781 C 157.78125 28.742188 157.074219 29.023438 156.789062 28.882812 C 156.367188 28.601562 156.648438 26.410156 157.214844 24.925781 C 157.992188 22.59375 161.382812 16.726562 162.515625 16.441406 C 162.871094 16.371094 163.152344 16.726562 163.363281 17.078125 C 163.71875 17.644531 163.71875 18.84375 163.859375 20.046875 C 164 21.957031 164.496094 26.054688 163.789062 27.1875 C 163.433594 27.753906 162.585938 28.105469 162.234375 28.035156 C 162.019531 27.964844 161.808594 27.609375 161.808594 27.1875 C 161.949219 25.984375 165.765625 20.402344 166.828125 20.1875 C 167.179688 20.117188 167.464844 20.402344 167.746094 20.753906 C 168.101562 21.320312 168.171875 22.875 168.3125 24.007812 C 168.382812 25.277344 168.808594 27.1875 168.3125 27.894531 C 168.101562 28.390625 167.324219 28.742188 166.96875 28.671875 C 166.6875 28.601562 166.402344 28.105469 166.332031 27.683594 C 166.261719 27.1875 166.757812 26.480469 167.179688 25.703125 C 167.886719 24.5 169.445312 21.460938 170.363281 21.390625 C 170.929688 21.320312 171.636719 22.238281 171.917969 22.875 C 172.199219 23.511719 171.988281 24.21875 171.988281 24.996094 C 171.988281 25.914062 172.199219 27.46875 171.847656 28.035156 C 171.5625 28.460938 170.785156 28.742188 170.503906 28.601562 C 170.222656 28.53125 169.9375 28.105469 169.9375 27.683594 C 169.867188 26.480469 171.917969 21.742188 172.765625 21.460938 C 173.121094 21.320312 173.472656 21.671875 173.753906 22.027344 C 174.179688 22.59375 174.25 24.5 174.320312 25.492188 C 174.390625 26.269531 174.605469 27.117188 174.320312 27.539062 C 174.109375 27.894531 173.332031 28.246094 173.261719 28.105469 C 173.046875 27.894531 174.675781 24.429688 175.382812 24.21875 C 175.734375 24.148438 176.230469 24.429688 176.511719 24.855469 C 176.9375 25.492188 176.441406 28.246094 176.9375 28.390625 C 177.429688 28.53125 178.988281 25.773438 179.695312 25.5625 C 180.046875 25.417969 180.402344 25.492188 180.613281 25.703125 C 180.894531 25.914062 181.105469 26.621094 180.894531 26.90625 C 180.753906 27.1875 179.621094 27.398438 179.269531 27.1875 C 179.058594 27.046875 178.914062 26.550781 178.988281 26.269531 C 179.128906 25.984375 179.621094 25.5625 179.90625 25.492188 C 180.1875 25.417969 180.613281 25.632812 180.753906 25.84375 C 180.964844 26.125 180.964844 26.621094 180.824219 27.117188 C 180.542969 28.035156 178.988281 30.15625 178.136719 30.652344 C 177.714844 30.933594 177.289062 31.074219 176.867188 30.933594 C 176.230469 30.652344 175.453125 29.449219 175.027344 28.53125 C 174.605469 27.46875 174.460938 25.417969 174.675781 24.785156 C 174.816406 24.429688 175.167969 24.21875 175.382812 24.21875 C 175.734375 24.289062 176.371094 24.996094 176.441406 25.492188 C 176.582031 26.269531 175.734375 27.894531 175.027344 28.53125 C 174.460938 29.023438 173.472656 29.660156 172.976562 29.378906 C 172.058594 28.8125 171.492188 23.300781 171.917969 22.167969 C 172.058594 21.742188 172.484375 21.390625 172.765625 21.460938 C 173.121094 21.460938 173.683594 22.097656 173.828125 22.664062 C 174.039062 23.582031 173.472656 25.5625 172.976562 26.550781 C 172.625 27.328125 172.128906 28.246094 171.5625 28.460938 C 171.070312 28.601562 170.222656 28.390625 169.9375 27.894531 C 169.515625 27.1875 170.644531 23.792969 170.363281 23.722656 C 170.148438 23.652344 168.878906 27.753906 168.101562 28.390625 C 167.746094 28.671875 167.324219 28.742188 166.96875 28.671875 C 166.6875 28.53125 166.546875 28.175781 166.332031 27.683594 C 165.910156 26.480469 165.554688 21.53125 166.050781 20.613281 C 166.261719 20.257812 166.546875 20.117188 166.828125 20.1875 C 167.109375 20.257812 167.675781 20.964844 167.675781 21.601562 C 167.605469 22.945312 164.636719 27.1875 163.503906 27.824219 C 163.082031 28.175781 162.585938 28.316406 162.234375 28.035156 C 161.242188 27.1875 161.03125 18.066406 161.738281 16.867188 C 161.949219 16.582031 162.234375 16.441406 162.515625 16.441406 C 162.796875 16.511719 163.363281 17.148438 163.363281 17.714844 C 163.433594 18.988281 160.535156 21.957031 159.617188 23.933594 C 158.839844 25.492188 158.769531 27.894531 158.0625 28.53125 C 157.707031 28.882812 157.144531 29.097656 156.789062 28.882812 C 155.941406 28.175781 156.296875 21.957031 156.4375 19.199219 C 156.578125 17.007812 156.789062 14.390625 157.355469 13.542969 C 157.636719 13.191406 157.992188 12.976562 158.203125 13.050781 C 158.488281 13.121094 158.910156 13.613281 158.910156 14.25 C 158.980469 16.089844 154.527344 22.945312 153.113281 25.277344 C 152.335938 26.480469 151.839844 27.683594 151.277344 27.894531 C 150.921875 27.964844 150.355469 27.753906 150.214844 27.539062 C 150.003906 27.328125 150.144531 26.480469 150.144531 26.480469 " clip-rule="nonzero"/></clipPath><clipPath id="da1eb10e7b"><path d="M 0.0859375 0 L 31 0 L 31 18 L 0.0859375 18 Z M 0.0859375 0 " clip-rule="nonzero"/></clipPath><clipPath id="86b0eddd5d"><path d="M 0.144531 13.480469 C 7.496094 0.332031 7.851562 -0.0234375 8.203125 0.0507812 C 8.558594 0.0507812 8.839844 0.332031 8.980469 0.828125 C 9.6875 2.59375 9.265625 13.410156 8.203125 15.175781 C 7.78125 15.742188 7.074219 16.023438 6.789062 15.882812 C 6.367188 15.601562 6.648438 13.410156 7.214844 11.925781 C 7.992188 9.59375 11.382812 3.726562 12.515625 3.441406 C 12.871094 3.371094 13.152344 3.726562 13.363281 4.078125 C 13.71875 4.644531 13.71875 5.84375 13.859375 7.046875 C 14 8.957031 14.496094 13.054688 13.789062 14.1875 C 13.433594 14.753906 12.585938 15.105469 12.234375 15.035156 C 12.019531 14.964844 11.808594 14.609375 11.808594 14.1875 C 11.949219 12.984375 15.765625 7.402344 16.828125 7.1875 C 17.179688 7.117188 17.464844 7.402344 17.746094 7.753906 C 18.101562 8.320312 18.171875 9.875 18.3125 11.007812 C 18.382812 12.277344 18.808594 14.1875 18.3125 14.894531 C 18.101562 15.390625 17.324219 15.742188 16.96875 15.671875 C 16.6875 15.601562 16.402344 15.105469 16.332031 14.683594 C 16.261719 14.1875 16.757812 13.480469 17.179688 12.703125 C 17.886719 11.5 19.445312 8.460938 20.363281 8.390625 C 20.929688 8.320312 21.636719 9.238281 21.917969 9.875 C 22.199219 10.511719 21.988281 11.21875 21.988281 11.996094 C 21.988281 12.914062 22.199219 14.46875 21.847656 15.035156 C 21.5625 15.460938 20.785156 15.742188 20.503906 15.601562 C 20.222656 15.53125 19.9375 15.105469 19.9375 14.683594 C 19.867188 13.480469 21.917969 8.742188 22.765625 8.460938 C 23.121094 8.320312 23.472656 8.671875 23.753906 9.027344 C 24.179688 9.59375 24.25 11.5 24.320312 12.492188 C 24.390625 13.269531 24.605469 14.117188 24.320312 14.539062 C 24.109375 14.894531 23.332031 15.246094 23.261719 15.105469 C 23.046875 14.894531 24.675781 11.429688 25.382812 11.21875 C 25.734375 11.148438 26.230469 11.429688 26.511719 11.855469 C 26.9375 12.492188 26.441406 15.246094 26.9375 15.390625 C 27.429688 15.53125 28.988281 12.773438 29.695312 12.5625 C 30.046875 12.417969 30.402344 12.492188 30.613281 12.703125 C 30.894531 12.914062 31.105469 13.621094 30.894531 13.90625 C 30.753906 14.1875 29.621094 14.398438 29.269531 14.1875 C 29.058594 14.046875 28.914062 13.550781 28.988281 13.269531 C 29.128906 12.984375 29.621094 12.5625 29.90625 12.492188 C 30.1875 12.417969 30.613281 12.632812 30.753906 12.84375 C 30.964844 13.125 30.964844 13.621094 30.824219 14.117188 C 30.542969 15.035156 28.988281 17.15625 28.136719 17.652344 C 27.714844 17.933594 27.289062 18.074219 26.867188 17.933594 C 26.230469 17.652344 25.453125 16.449219 25.027344 15.53125 C 24.605469 14.46875 24.460938 12.417969 24.675781 11.785156 C 24.816406 11.429688 25.167969 11.21875 25.382812 11.21875 C 25.734375 11.289062 26.371094 11.996094 26.441406 12.492188 C 26.582031 13.269531 25.734375 14.894531 25.027344 15.53125 C 24.460938 16.023438 23.472656 16.660156 22.976562 16.378906 C 22.058594 15.8125 21.492188 10.300781 21.917969 9.167969 C 22.058594 8.742188 22.484375 8.390625 22.765625 8.460938 C 23.121094 8.460938 23.683594 9.097656 23.828125 9.664062 C 24.039062 10.582031 23.472656 12.5625 22.976562 13.550781 C 22.625 14.328125 22.128906 15.246094 21.5625 15.460938 C 21.070312 15.601562 20.222656 15.390625 19.9375 14.894531 C 19.515625 14.1875 20.644531 10.792969 20.363281 10.722656 C 20.148438 10.652344 18.878906 14.753906 18.101562 15.390625 C 17.746094 15.671875 17.324219 15.742188 16.96875 15.671875 C 16.6875 15.53125 16.546875 15.175781 16.332031 14.683594 C 15.910156 13.480469 15.554688 8.53125 16.050781 7.613281 C 16.261719 7.257812 16.546875 7.117188 16.828125 7.1875 C 17.109375 7.257812 17.675781 7.964844 17.675781 8.601562 C 17.605469 9.945312 14.636719 14.1875 13.503906 14.824219 C 13.082031 15.175781 12.585938 15.316406 12.234375 15.035156 C 11.242188 14.1875 11.03125 5.066406 11.738281 3.867188 C 11.949219 3.582031 12.234375 3.441406 12.515625 3.441406 C 12.796875 3.511719 13.363281 4.148438 13.363281 4.714844 C 13.433594 5.988281 10.535156 8.957031 9.617188 10.933594 C 8.839844 12.492188 8.769531 14.894531 8.0625 15.53125 C 7.707031 15.882812 7.144531 16.097656 6.789062 15.882812 C 5.941406 15.175781 6.296875 8.957031 6.4375 6.199219 C 6.578125 4.007812 6.789062 1.390625 7.355469 0.542969 C 7.636719 0.191406 7.992188 -0.0234375 8.203125 0.0507812 C 8.488281 0.121094 8.910156 0.613281 8.910156 1.25 C 8.980469 3.089844 4.527344 9.945312 3.113281 12.277344 C 2.335938 13.480469 1.839844 14.683594 1.277344 14.894531 C 0.921875 14.964844 0.355469 14.753906 0.214844 14.539062 C 0.00390625 14.328125 0.144531 13.480469 0.144531 13.480469 " clip-rule="nonzero"/></clipPath><clipPath id="e0ced8e28c"><rect x="0" width="31" y="0" height="18"/></clipPath></defs><g transform="matrix(1, 0, 0, 1, 2, 20)"><g clip-path="url(#24cb05fbd6)"><g fill="#000000" fill-opacity="1"><g transform="translate(0.806263, 34.193531)"><g><path d="M 18.375 -17.25 C 18.269531 -17.695312 18.097656 -18.085938 17.859375 -18.421875 C 17.628906 -18.765625 17.335938 -19.054688 16.984375 -19.296875 C 16.640625 -19.535156 16.238281 -19.710938 15.78125 -19.828125 C 15.320312 -19.953125 14.820312 -20.015625 14.28125 -20.015625 C 13.101562 -20.015625 12.101562 -19.734375 11.28125 -19.171875 C 10.457031 -18.609375 9.828125 -17.796875 9.390625 -16.734375 C 8.960938 -15.679688 8.75 -14.410156 8.75 -12.921875 C 8.75 -11.410156 8.953125 -10.117188 9.359375 -9.046875 C 9.773438 -7.972656 10.390625 -7.148438 11.203125 -6.578125 C 12.015625 -6.015625 13.023438 -5.734375 14.234375 -5.734375 C 15.296875 -5.734375 16.179688 -5.882812 16.890625 -6.1875 C 17.597656 -6.5 18.128906 -6.941406 18.484375 -7.515625 C 18.835938 -8.085938 19.015625 -8.757812 19.015625 -9.53125 L 20.21875 -9.40625 L 14.328125 -9.40625 L 14.328125 -14.390625 L 25.75 -14.390625 L 25.75 -10.8125 C 25.75 -8.46875 25.25 -6.460938 24.25 -4.796875 C 23.257812 -3.128906 21.894531 -1.851562 20.15625 -0.96875 C 18.414062 -0.0820312 16.425781 0.359375 14.1875 0.359375 C 11.675781 0.359375 9.472656 -0.171875 7.578125 -1.234375 C 5.679688 -2.304688 4.203125 -3.828125 3.140625 -5.796875 C 2.085938 -7.765625 1.5625 -10.109375 1.5625 -12.828125 C 1.5625 -14.953125 1.882812 -16.835938 2.53125 -18.484375 C 3.1875 -20.128906 4.09375 -21.519531 5.25 -22.65625 C 6.40625 -23.789062 7.738281 -24.648438 9.25 -25.234375 C 10.769531 -25.816406 12.394531 -26.109375 14.125 -26.109375 C 15.65625 -26.109375 17.078125 -25.890625 18.390625 -25.453125 C 19.703125 -25.023438 20.863281 -24.414062 21.875 -23.625 C 22.882812 -22.832031 23.695312 -21.894531 24.3125 -20.8125 C 24.9375 -19.726562 25.316406 -18.539062 25.453125 -17.25 Z M 18.375 -17.25 "/></g></g></g><g fill="#000000" fill-opacity="1"><g transform="translate(28.170143, 34.193531)"><g><path d="M 11.015625 0.359375 C 8.953125 0.359375 7.175781 -0.0351562 5.6875 -0.828125 C 4.195312 -1.628906 3.050781 -2.769531 2.25 -4.25 C 1.457031 -5.738281 1.0625 -7.523438 1.0625 -9.609375 C 1.0625 -11.597656 1.460938 -13.335938 2.265625 -14.828125 C 3.066406 -16.328125 4.203125 -17.488281 5.671875 -18.3125 C 7.140625 -19.144531 8.867188 -19.5625 10.859375 -19.5625 C 12.316406 -19.5625 13.632812 -19.332031 14.8125 -18.875 C 16 -18.425781 17.007812 -17.769531 17.84375 -16.90625 C 18.6875 -16.050781 19.332031 -15.007812 19.78125 -13.78125 C 20.238281 -12.5625 20.46875 -11.1875 20.46875 -9.65625 L 20.46875 -8.046875 L 3.21875 -8.046875 L 3.21875 -11.875 L 14.078125 -11.875 C 14.066406 -12.425781 13.925781 -12.910156 13.65625 -13.328125 C 13.382812 -13.753906 13.019531 -14.085938 12.5625 -14.328125 C 12.101562 -14.566406 11.585938 -14.6875 11.015625 -14.6875 C 10.453125 -14.6875 9.9375 -14.566406 9.46875 -14.328125 C 9 -14.085938 8.625 -13.757812 8.34375 -13.34375 C 8.0625 -12.925781 7.910156 -12.4375 7.890625 -11.875 L 7.890625 -7.75 C 7.890625 -7.125 8.019531 -6.566406 8.28125 -6.078125 C 8.539062 -5.597656 8.914062 -5.21875 9.40625 -4.9375 C 9.894531 -4.664062 10.484375 -4.53125 11.171875 -4.53125 C 11.640625 -4.53125 12.070312 -4.59375 12.46875 -4.71875 C 12.875 -4.851562 13.21875 -5.050781 13.5 -5.3125 C 13.789062 -5.570312 14 -5.878906 14.125 -6.234375 L 20.46875 -6.234375 C 20.25 -4.890625 19.734375 -3.722656 18.921875 -2.734375 C 18.109375 -1.753906 17.03125 -0.992188 15.6875 -0.453125 C 14.351562 0.0859375 12.796875 0.359375 11.015625 0.359375 Z M 11.015625 0.359375 "/></g></g></g><g fill="#000000" fill-opacity="1"><g transform="translate(49.699081, 34.193531)"><g><path d="M 8.703125 -10.859375 L 8.703125 0 L 1.765625 0 L 1.765625 -19.3125 L 8.34375 -19.3125 L 8.34375 -15.640625 L 8.546875 -15.640625 C 8.960938 -16.867188 9.703125 -17.828125 10.765625 -18.515625 C 11.828125 -19.210938 13.066406 -19.5625 14.484375 -19.5625 C 15.847656 -19.5625 17.035156 -19.25 18.046875 -18.625 C 19.054688 -18 19.835938 -17.140625 20.390625 -16.046875 C 20.953125 -14.960938 21.226562 -13.722656 21.21875 -12.328125 L 21.21875 0 L 14.28125 0 L 14.28125 -10.859375 C 14.289062 -11.816406 14.050781 -12.566406 13.5625 -13.109375 C 13.070312 -13.660156 12.390625 -13.9375 11.515625 -13.9375 C 10.941406 -13.9375 10.441406 -13.8125 10.015625 -13.5625 C 9.597656 -13.3125 9.273438 -12.957031 9.046875 -12.5 C 8.828125 -12.039062 8.710938 -11.492188 8.703125 -10.859375 Z M 8.703125 -10.859375 "/></g></g></g><g fill="#000000" fill-opacity="1"><g transform="translate(72.586154, 34.193531)"><g><path d="M 11.015625 0.359375 C 8.953125 0.359375 7.175781 -0.0351562 5.6875 -0.828125 C 4.195312 -1.628906 3.050781 -2.769531 2.25 -4.25 C 1.457031 -5.738281 1.0625 -7.523438 1.0625 -9.609375 C 1.0625 -11.597656 1.460938 -13.335938 2.265625 -14.828125 C 3.066406 -16.328125 4.203125 -17.488281 5.671875 -18.3125 C 7.140625 -19.144531 8.867188 -19.5625 10.859375 -19.5625 C 12.316406 -19.5625 13.632812 -19.332031 14.8125 -18.875 C 16 -18.425781 17.007812 -17.769531 17.84375 -16.90625 C 18.6875 -16.050781 19.332031 -15.007812 19.78125 -13.78125 C 20.238281 -12.5625 20.46875 -11.1875 20.46875 -9.65625 L 20.46875 -8.046875 L 3.21875 -8.046875 L 3.21875 -11.875 L 14.078125 -11.875 C 14.066406 -12.425781 13.925781 -12.910156 13.65625 -13.328125 C 13.382812 -13.753906 13.019531 -14.085938 12.5625 -14.328125 C 12.101562 -14.566406 11.585938 -14.6875 11.015625 -14.6875 C 10.453125 -14.6875 9.9375 -14.566406 9.46875 -14.328125 C 9 -14.085938 8.625 -13.757812 8.34375 -13.34375 C 8.0625 -12.925781 7.910156 -12.4375 7.890625 -11.875 L 7.890625 -7.75 C 7.890625 -7.125 8.019531 -6.566406 8.28125 -6.078125 C 8.539062 -5.597656 8.914062 -5.21875 9.40625 -4.9375 C 9.894531 -4.664062 10.484375 -4.53125 11.171875 -4.53125 C 11.640625 -4.53125 12.070312 -4.59375 12.46875 -4.71875 C 12.875 -4.851562 13.21875 -5.050781 13.5 -5.3125 C 13.789062 -5.570312 14 -5.878906 14.125 -6.234375 L 20.46875 -6.234375 C 20.25 -4.890625 19.734375 -3.722656 18.921875 -2.734375 C 18.109375 -1.753906 17.03125 -0.992188 15.6875 -0.453125 C 14.351562 0.0859375 12.796875 0.359375 11.015625 0.359375 Z M 11.015625 0.359375 "/></g></g></g><g fill="#000000" fill-opacity="1"><g transform="translate(94.115093, 34.193531)"><g><path d="M 1.765625 0 L 1.765625 -19.3125 L 8.5 -19.3125 L 8.5 -15.640625 L 8.703125 -15.640625 C 9.054688 -16.992188 9.613281 -17.984375 10.375 -18.609375 C 11.144531 -19.242188 12.046875 -19.5625 13.078125 -19.5625 C 13.378906 -19.5625 13.675781 -19.535156 13.96875 -19.484375 C 14.269531 -19.441406 14.5625 -19.378906 14.84375 -19.296875 L 14.84375 -13.375 C 14.5 -13.488281 14.070312 -13.578125 13.5625 -13.640625 C 13.0625 -13.703125 12.628906 -13.734375 12.265625 -13.734375 C 11.585938 -13.734375 10.976562 -13.578125 10.4375 -13.265625 C 9.894531 -12.960938 9.46875 -12.535156 9.15625 -11.984375 C 8.851562 -11.441406 8.703125 -10.800781 8.703125 -10.0625 L 8.703125 0 Z M 1.765625 0 "/></g></g></g><g fill="#000000" fill-opacity="1"><g transform="translate(109.456976, 34.193531)"><g><path d="M 7.140625 0.296875 C 5.910156 0.296875 4.820312 0.09375 3.875 -0.3125 C 2.9375 -0.71875 2.195312 -1.332031 1.65625 -2.15625 C 1.125 -2.988281 0.859375 -4.046875 0.859375 -5.328125 C 0.859375 -6.390625 1.035156 -7.296875 1.390625 -8.046875 C 1.753906 -8.796875 2.257812 -9.40625 2.90625 -9.875 C 3.550781 -10.351562 4.300781 -10.71875 5.15625 -10.96875 C 6.019531 -11.226562 6.953125 -11.394531 7.953125 -11.46875 C 9.023438 -11.550781 9.890625 -11.648438 10.546875 -11.765625 C 11.210938 -11.890625 11.691406 -12.0625 11.984375 -12.28125 C 12.273438 -12.507812 12.421875 -12.804688 12.421875 -13.171875 L 12.421875 -13.234375 C 12.421875 -13.734375 12.226562 -14.113281 11.84375 -14.375 C 11.457031 -14.644531 10.960938 -14.78125 10.359375 -14.78125 C 9.691406 -14.78125 9.148438 -14.632812 8.734375 -14.34375 C 8.328125 -14.0625 8.082031 -13.625 8 -13.03125 L 1.609375 -13.03125 C 1.691406 -14.195312 2.066406 -15.273438 2.734375 -16.265625 C 3.398438 -17.265625 4.375 -18.0625 5.65625 -18.65625 C 6.9375 -19.257812 8.539062 -19.5625 10.46875 -19.5625 C 11.84375 -19.5625 13.078125 -19.398438 14.171875 -19.078125 C 15.273438 -18.753906 16.210938 -18.304688 16.984375 -17.734375 C 17.753906 -17.160156 18.34375 -16.488281 18.75 -15.71875 C 19.15625 -14.957031 19.359375 -14.128906 19.359375 -13.234375 L 19.359375 0 L 12.875 0 L 12.875 -2.71875 L 12.71875 -2.71875 C 12.332031 -2 11.863281 -1.414062 11.3125 -0.96875 C 10.769531 -0.519531 10.148438 -0.195312 9.453125 0 C 8.753906 0.195312 7.984375 0.296875 7.140625 0.296875 Z M 9.40625 -4.078125 C 9.9375 -4.078125 10.429688 -4.1875 10.890625 -4.40625 C 11.359375 -4.625 11.738281 -4.9375 12.03125 -5.34375 C 12.320312 -5.75 12.46875 -6.25 12.46875 -6.84375 L 12.46875 -8.453125 C 12.289062 -8.378906 12.097656 -8.304688 11.890625 -8.234375 C 11.679688 -8.171875 11.460938 -8.109375 11.234375 -8.046875 C 11.003906 -7.984375 10.757812 -7.925781 10.5 -7.875 C 10.25 -7.832031 9.984375 -7.789062 9.703125 -7.75 C 9.171875 -7.664062 8.734375 -7.523438 8.390625 -7.328125 C 8.054688 -7.140625 7.804688 -6.910156 7.640625 -6.640625 C 7.472656 -6.367188 7.390625 -6.066406 7.390625 -5.734375 C 7.390625 -5.191406 7.578125 -4.78125 7.953125 -4.5 C 8.335938 -4.21875 8.820312 -4.078125 9.40625 -4.078125 Z M 9.40625 -4.078125 "/></g></g></g><g fill="#000000" fill-opacity="1"><g transform="translate(130.382296, 34.193531)"><g><path d="M 13.28125 -19.3125 L 13.28125 -14.28125 L 0.546875 -14.28125 L 0.546875 -19.3125 Z M 3.015625 -23.9375 L 9.953125 -23.9375 L 9.953125 -6.21875 C 9.953125 -5.945312 10 -5.71875 10.09375 -5.53125 C 10.1875 -5.351562 10.328125 -5.21875 10.515625 -5.125 C 10.710938 -5.039062 10.960938 -5 11.265625 -5 C 11.472656 -5 11.71875 -5.023438 12 -5.078125 C 12.28125 -5.128906 12.488281 -5.171875 12.625 -5.203125 L 13.625 -0.328125 C 13.320312 -0.234375 12.878906 -0.117188 12.296875 0.015625 C 11.722656 0.148438 11.046875 0.238281 10.265625 0.28125 C 8.671875 0.363281 7.332031 0.195312 6.25 -0.21875 C 5.164062 -0.632812 4.351562 -1.289062 3.8125 -2.1875 C 3.269531 -3.082031 3.003906 -4.207031 3.015625 -5.5625 Z M 3.015625 -23.9375 "/></g></g></g><g fill="#000000" fill-opacity="1"><g transform="translate(144.718158, 34.193531)"><g><path d="M 11.0625 0.359375 C 8.96875 0.359375 7.171875 -0.0546875 5.671875 -0.890625 C 4.179688 -1.734375 3.039062 -2.898438 2.25 -4.390625 C 1.457031 -5.890625 1.0625 -7.628906 1.0625 -9.609375 C 1.0625 -11.585938 1.457031 -13.320312 2.25 -14.8125 C 3.039062 -16.3125 4.179688 -17.476562 5.671875 -18.3125 C 7.171875 -19.144531 8.96875 -19.5625 11.0625 -19.5625 C 13.15625 -19.5625 14.945312 -19.144531 16.4375 -18.3125 C 17.9375 -17.476562 19.082031 -16.3125 19.875 -14.8125 C 20.675781 -13.320312 21.078125 -11.585938 21.078125 -9.609375 C 21.078125 -7.628906 20.675781 -5.890625 19.875 -4.390625 C 19.082031 -2.898438 17.9375 -1.734375 16.4375 -0.890625 C 14.945312 -0.0546875 13.15625 0.359375 11.0625 0.359375 Z M 11.109375 -4.78125 C 11.703125 -4.78125 12.210938 -4.972656 12.640625 -5.359375 C 13.066406 -5.753906 13.394531 -6.316406 13.625 -7.046875 C 13.863281 -7.773438 13.984375 -8.644531 13.984375 -9.65625 C 13.984375 -10.664062 13.863281 -11.535156 13.625 -12.265625 C 13.394531 -12.992188 13.066406 -13.550781 12.640625 -13.9375 C 12.210938 -14.332031 11.703125 -14.53125 11.109375 -14.53125 C 10.492188 -14.53125 9.960938 -14.332031 9.515625 -13.9375 C 9.078125 -13.550781 8.738281 -12.992188 8.5 -12.265625 C 8.257812 -11.535156 8.140625 -10.664062 8.140625 -9.65625 C 8.140625 -8.644531 8.257812 -7.773438 8.5 -7.046875 C 8.738281 -6.316406 9.078125 -5.753906 9.515625 -5.359375 C 9.960938 -4.972656 10.492188 -4.78125 11.109375 -4.78125 Z M 11.109375 -4.78125 "/></g></g></g><g fill="#000000" fill-opacity="1"><g transform="translate(166.850714, 34.193531)"><g><path d="M 1.765625 0 L 1.765625 -19.3125 L 8.5 -19.3125 L 8.5 -15.640625 L 8.703125 -15.640625 C 9.054688 -16.992188 9.613281 -17.984375 10.375 -18.609375 C 11.144531 -19.242188 12.046875 -19.5625 13.078125 -19.5625 C 13.378906 -19.5625 13.675781 -19.535156 13.96875 -19.484375 C 14.269531 -19.441406 14.5625 -19.378906 14.84375 -19.296875 L 14.84375 -13.375 C 14.5 -13.488281 14.070312 -13.578125 13.5625 -13.640625 C 13.0625 -13.703125 12.628906 -13.734375 12.265625 -13.734375 C 11.585938 -13.734375 10.976562 -13.578125 10.4375 -13.265625 C 9.894531 -12.960938 9.46875 -12.535156 9.15625 -11.984375 C 8.851562 -11.441406 8.703125 -10.800781 8.703125 -10.0625 L 8.703125 0 Z M 1.765625 0 "/></g></g></g></g></g><g transform="matrix(1, 0, 0, 1, 39, 8)"><g clip-path="url(#2895a4d297)"><g fill="#000000" fill-opacity="1"><g transform="translate(1.11196, 20.646209)"><g><path d="M 0.078125 0 L 0.078125 -1.40625 L 1.859375 -1.40625 L 7.0625 -14.875 L 9.40625 -14.875 L 14.6875 -1.40625 L 16.34375 -1.40625 L 16.34375 0 L 9.953125 0 L 9.953125 -1.40625 L 12.15625 -1.40625 L 10.78125 -4.984375 L 5.078125 -4.984375 L 3.78125 -1.40625 L 6.28125 -1.40625 L 6.28125 0 Z M 5.546875 -6.234375 L 10.296875 -6.234375 L 7.859375 -12.9375 Z M 5.546875 -6.234375 "/></g></g></g><g fill="#000000" fill-opacity="1"><g transform="translate(16.782619, 20.646209)"><g><path d="M 5.140625 0.265625 C 4.273438 0.265625 3.515625 0.0351562 2.859375 -0.421875 C 2.203125 -0.878906 1.691406 -1.53125 1.328125 -2.375 C 0.972656 -3.21875 0.796875 -4.195312 0.796875 -5.3125 C 0.796875 -6.414062 0.976562 -7.390625 1.34375 -8.234375 C 1.707031 -9.078125 2.226562 -9.726562 2.90625 -10.1875 C 3.582031 -10.65625 4.375 -10.890625 5.28125 -10.890625 C 5.832031 -10.890625 6.375 -10.742188 6.90625 -10.453125 C 7.4375 -10.171875 7.863281 -9.789062 8.1875 -9.3125 L 8.1875 -13.65625 L 5.875 -13.65625 L 5.875 -14.875 L 10.3125 -14.875 L 10.3125 -1.109375 L 12.109375 -1.109375 L 12.109375 0 L 8.59375 0 L 8.203125 -1.671875 C 7.878906 -1.066406 7.4375 -0.59375 6.875 -0.25 C 6.3125 0.09375 5.734375 0.265625 5.140625 0.265625 Z M 5.5625 -0.984375 C 6.09375 -0.984375 6.566406 -1.175781 6.984375 -1.5625 C 7.410156 -1.945312 7.742188 -2.472656 7.984375 -3.140625 C 8.222656 -3.816406 8.34375 -4.578125 8.34375 -5.421875 C 8.34375 -6.523438 8.128906 -7.5 7.703125 -8.34375 C 7.484375 -8.789062 7.191406 -9.140625 6.828125 -9.390625 C 6.472656 -9.640625 6.078125 -9.765625 5.640625 -9.765625 C 5.203125 -9.765625 4.804688 -9.632812 4.453125 -9.375 C 4.109375 -9.125 3.835938 -8.769531 3.640625 -8.3125 C 3.242188 -7.4375 3.046875 -6.414062 3.046875 -5.25 C 3.046875 -3.625 3.414062 -2.414062 4.15625 -1.625 C 4.550781 -1.195312 5.019531 -0.984375 5.5625 -0.984375 Z M 5.5625 -0.984375 "/></g></g></g><g fill="#000000" fill-opacity="1"><g transform="translate(28.846853, 20.646209)"><g><path d="M 6.28125 0.390625 C 5.9375 0.378906 5.644531 0.257812 5.40625 0.03125 C 5.164062 -0.195312 4.953125 -0.566406 4.765625 -1.078125 L 1.671875 -9.5 L -0.140625 -9.5 L -0.140625 -10.59375 L 5.828125 -10.59375 L 5.828125 -9.5 L 4.03125 -9.5 L 6.640625 -1.5625 L 9.171875 -9.5 L 7.484375 -9.5 L 7.484375 -10.59375 L 12.546875 -10.59375 L 12.546875 -9.5 L 10.84375 -9.5 L 7.9375 -1.140625 C 7.738281 -0.597656 7.515625 -0.207031 7.265625 0.03125 C 7.015625 0.269531 6.703125 0.390625 6.328125 0.390625 Z M 6.28125 0.390625 "/></g></g></g><g fill="#000000" fill-opacity="1"><g transform="translate(40.891325, 20.646209)"><g><path d="M 5.890625 0.265625 C 5.097656 0.265625 4.367188 0.117188 3.703125 -0.171875 C 3.035156 -0.472656 2.488281 -0.890625 2.0625 -1.421875 C 1.625 -1.929688 1.289062 -2.507812 1.0625 -3.15625 C 0.84375 -3.800781 0.734375 -4.472656 0.734375 -5.171875 C 0.734375 -5.765625 0.800781 -6.34375 0.9375 -6.90625 C 1.082031 -7.46875 1.296875 -7.984375 1.578125 -8.453125 C 2.179688 -9.492188 2.988281 -10.203125 4 -10.578125 C 4.53125 -10.785156 5.117188 -10.890625 5.765625 -10.890625 C 6.441406 -10.890625 7.066406 -10.769531 7.640625 -10.53125 C 8.222656 -10.289062 8.734375 -9.945312 9.171875 -9.5 C 9.609375 -9.039062 9.953125 -8.460938 10.203125 -7.765625 C 10.460938 -7.066406 10.597656 -6.289062 10.609375 -5.4375 L 3 -5.4375 L 3 -5.359375 C 3 -4.210938 3.238281 -3.25 3.71875 -2.46875 C 3.96875 -2.070312 4.296875 -1.765625 4.703125 -1.546875 C 5.109375 -1.328125 5.570312 -1.21875 6.09375 -1.21875 C 6.550781 -1.21875 6.992188 -1.3125 7.421875 -1.5 C 7.859375 -1.695312 8.238281 -1.984375 8.5625 -2.359375 C 8.882812 -2.734375 9.113281 -3.171875 9.25 -3.671875 L 10.40625 -3.296875 C 10.226562 -2.578125 9.929688 -1.945312 9.515625 -1.40625 C 9.109375 -0.875 8.59375 -0.460938 7.96875 -0.171875 C 7.351562 0.117188 6.660156 0.265625 5.890625 0.265625 Z M 8.4375 -6.515625 C 8.425781 -7.140625 8.300781 -7.691406 8.0625 -8.171875 C 7.832031 -8.660156 7.519531 -9.039062 7.125 -9.3125 C 6.738281 -9.582031 6.304688 -9.71875 5.828125 -9.71875 C 5.347656 -9.71875 4.90625 -9.582031 4.5 -9.3125 C 4.101562 -9.039062 3.773438 -8.660156 3.515625 -8.171875 C 3.265625 -7.691406 3.113281 -7.140625 3.0625 -6.515625 Z M 8.4375 -6.515625 "/></g></g><g transform="translate(52.254034, 20.646209)"><g><path d="M 0.484375 -1.109375 L 2.40625 -1.109375 L 2.40625 -9.5 L 0.484375 -9.5 L 0.484375 -10.59375 L 4.234375 -10.765625 L 4.46875 -8.609375 C 4.675781 -9.085938 4.96875 -9.5 5.34375 -9.84375 C 5.71875 -10.1875 6.132812 -10.445312 6.59375 -10.625 C 7.0625 -10.800781 7.53125 -10.890625 8 -10.890625 C 8.21875 -10.890625 8.414062 -10.878906 8.59375 -10.859375 C 8.769531 -10.835938 8.960938 -10.796875 9.171875 -10.734375 C 9.410156 -10.660156 9.617188 -10.566406 9.796875 -10.453125 C 9.972656 -10.335938 10.160156 -10.1875 10.359375 -10 C 10.554688 -9.789062 10.71875 -9.554688 10.84375 -9.296875 C 10.96875 -9.035156 11.070312 -8.71875 11.15625 -8.34375 C 11.226562 -7.957031 11.265625 -7.523438 11.265625 -7.046875 L 11.265625 -1.109375 L 13.296875 -1.109375 L 13.296875 0 L 7.34375 0 L 7.34375 -1.109375 L 9.15625 -1.109375 L 9.15625 -7.03125 C 9.15625 -7.863281 8.988281 -8.488281 8.65625 -8.90625 C 8.320312 -9.320312 7.859375 -9.53125 7.265625 -9.53125 C 6.890625 -9.53125 6.546875 -9.460938 6.234375 -9.328125 C 5.921875 -9.191406 5.660156 -9 5.453125 -8.75 C 5.242188 -8.507812 5.066406 -8.226562 4.921875 -7.90625 C 4.785156 -7.582031 4.691406 -7.242188 4.640625 -6.890625 C 4.566406 -6.554688 4.53125 -6.191406 4.53125 -5.796875 L 4.53125 -1.109375 L 6.328125 -1.109375 L 6.328125 0 L 0.484375 0 Z M 0.484375 -1.109375 "/></g></g><g transform="translate(65.681793, 20.646209)"><g><path d="M 5.015625 0.265625 C 4.171875 0.265625 3.441406 0.015625 2.828125 -0.484375 C 2.515625 -0.742188 2.265625 -1.082031 2.078125 -1.5 C 1.898438 -1.925781 1.8125 -2.398438 1.8125 -2.921875 L 1.8125 -9.5 L -0.203125 -9.5 L -0.203125 -9.953125 C 0.285156 -10.097656 0.738281 -10.363281 1.15625 -10.75 C 1.570312 -11.132812 1.910156 -11.566406 2.171875 -12.046875 C 2.421875 -12.484375 2.640625 -12.925781 2.828125 -13.375 C 3.066406 -13.925781 3.226562 -14.28125 3.3125 -14.4375 C 3.457031 -14.726562 3.582031 -14.875 3.6875 -14.875 C 3.757812 -14.875 3.816406 -14.84375 3.859375 -14.78125 C 3.910156 -14.71875 3.9375 -14.632812 3.9375 -14.53125 L 3.9375 -10.59375 L 7.828125 -10.59375 L 7.828125 -9.46875 L 3.9375 -9.46875 L 3.9375 -2.859375 C 3.9375 -2.285156 4.066406 -1.847656 4.328125 -1.546875 C 4.585938 -1.253906 4.941406 -1.109375 5.390625 -1.109375 C 5.929688 -1.109375 6.332031 -1.285156 6.59375 -1.640625 C 6.851562 -2.003906 6.984375 -2.609375 6.984375 -3.453125 L 6.984375 -4.875 L 8.171875 -4.875 L 8.171875 -3.671875 C 8.171875 -2.773438 8.066406 -2.039062 7.859375 -1.46875 C 7.660156 -0.894531 7.328125 -0.460938 6.859375 -0.171875 C 6.398438 0.117188 5.785156 0.265625 5.015625 0.265625 Z M 5.015625 0.265625 "/></g></g><g transform="translate(74.495303, 20.646209)"><g><path d="M 8.703125 -1.953125 C 7.867188 -0.472656 6.679688 0.265625 5.140625 0.265625 C 4.898438 0.265625 4.675781 0.25 4.46875 0.21875 C 4.257812 0.1875 4.019531 0.128906 3.75 0.046875 C 3.257812 -0.109375 2.816406 -0.472656 2.421875 -1.046875 C 2.234375 -1.316406 2.082031 -1.664062 1.96875 -2.09375 C 1.863281 -2.53125 1.8125 -3.019531 1.8125 -3.5625 L 1.8125 -9.5 L -0.046875 -9.5 L -0.046875 -10.59375 L 3.9375 -10.59375 L 3.9375 -3.578125 C 3.9375 -2.703125 4.070312 -2.070312 4.34375 -1.6875 C 4.625 -1.300781 5.0625 -1.109375 5.65625 -1.109375 C 6.082031 -1.109375 6.523438 -1.234375 6.984375 -1.484375 C 7.453125 -1.734375 7.84375 -2.0625 8.15625 -2.46875 C 8.476562 -2.875 8.640625 -3.285156 8.640625 -3.703125 L 8.640625 -9.5 L 6.84375 -9.5 L 6.84375 -10.59375 L 10.765625 -10.59375 L 10.765625 -1.109375 L 12.6875 -0.90625 L 12.6875 0 L 8.703125 0.28125 Z M 8.703125 -1.953125 "/></g></g><g transform="translate(87.201777, 20.646209)"><g><path d="M 0.484375 -1.109375 L 2.40625 -1.109375 L 2.40625 -9.5 L 0.484375 -9.5 L 0.484375 -10.59375 L 4.234375 -10.765625 L 4.5 -8.453125 C 4.664062 -9.015625 4.960938 -9.539062 5.390625 -10.03125 C 5.617188 -10.300781 5.90625 -10.507812 6.25 -10.65625 C 6.59375 -10.8125 6.957031 -10.890625 7.34375 -10.890625 C 7.707031 -10.890625 8.035156 -10.820312 8.328125 -10.6875 C 8.628906 -10.550781 8.863281 -10.351562 9.03125 -10.09375 C 9.207031 -9.84375 9.296875 -9.539062 9.296875 -9.1875 C 9.296875 -8.851562 9.226562 -8.5625 9.09375 -8.3125 C 8.957031 -8.070312 8.773438 -7.882812 8.546875 -7.75 C 8.316406 -7.625 8.0625 -7.5625 7.78125 -7.5625 C 7.394531 -7.5625 7.0625 -7.679688 6.78125 -7.921875 C 6.507812 -8.171875 6.375 -8.488281 6.375 -8.875 C 6.375 -9 6.40625 -9.132812 6.46875 -9.28125 C 6.53125 -9.425781 6.597656 -9.546875 6.671875 -9.640625 L 6.78125 -9.75 C 6.394531 -9.75 6.050781 -9.628906 5.75 -9.390625 C 5.445312 -9.148438 5.207031 -8.816406 5.03125 -8.390625 C 4.695312 -7.578125 4.53125 -6.675781 4.53125 -5.6875 L 4.53125 -1.109375 L 6.765625 -1.109375 L 6.765625 0 L 0.484375 0 Z M 0.484375 -1.109375 "/></g></g></g><g fill="#000000" fill-opacity="1"><g transform="translate(96.509318, 20.646209)"><g><path d="M 5.890625 0.265625 C 5.097656 0.265625 4.367188 0.117188 3.703125 -0.171875 C 3.035156 -0.472656 2.488281 -0.890625 2.0625 -1.421875 C 1.625 -1.929688 1.289062 -2.507812 1.0625 -3.15625 C 0.84375 -3.800781 0.734375 -4.472656 0.734375 -5.171875 C 0.734375 -5.765625 0.800781 -6.34375 0.9375 -6.90625 C 1.082031 -7.46875 1.296875 -7.984375 1.578125 -8.453125 C 2.179688 -9.492188 2.988281 -10.203125 4 -10.578125 C 4.53125 -10.785156 5.117188 -10.890625 5.765625 -10.890625 C 6.441406 -10.890625 7.066406 -10.769531 7.640625 -10.53125 C 8.222656 -10.289062 8.734375 -9.945312 9.171875 -9.5 C 9.609375 -9.039062 9.953125 -8.460938 10.203125 -7.765625 C 10.460938 -7.066406 10.597656 -6.289062 10.609375 -5.4375 L 3 -5.4375 L 3 -5.359375 C 3 -4.210938 3.238281 -3.25 3.71875 -2.46875 C 3.96875 -2.070312 4.296875 -1.765625 4.703125 -1.546875 C 5.109375 -1.328125 5.570312 -1.21875 6.09375 -1.21875 C 6.550781 -1.21875 6.992188 -1.3125 7.421875 -1.5 C 7.859375 -1.695312 8.238281 -1.984375 8.5625 -2.359375 C 8.882812 -2.734375 9.113281 -3.171875 9.25 -3.671875 L 10.40625 -3.296875 C 10.226562 -2.578125 9.929688 -1.945312 9.515625 -1.40625 C 9.109375 -0.875 8.59375 -0.460938 7.96875 -0.171875 C 7.351562 0.117188 6.660156 0.265625 5.890625 0.265625 Z M 8.4375 -6.515625 C 8.425781 -7.140625 8.300781 -7.691406 8.0625 -8.171875 C 7.832031 -8.660156 7.519531 -9.039062 7.125 -9.3125 C 6.738281 -9.582031 6.304688 -9.71875 5.828125 -9.71875 C 5.347656 -9.71875 4.90625 -9.582031 4.5 -9.3125 C 4.101562 -9.039062 3.773438 -8.660156 3.515625 -8.171875 C 3.265625 -7.691406 3.113281 -7.140625 3.0625 -6.515625 Z M 8.4375 -6.515625 "/></g></g></g></g></g><g clip-path="url(#48d471eb8c)"><g clip-path="url(#28468b4ea0)"><g transform="matrix(1, 0, 0, 1, 4, 9)"><g clip-path="url(#63bdb85eef)"><g clip-path="url(#38807640e8)"><g clip-path="url(#58d68bf56f)"><rect x="-45.25" width="270" fill="#64b81c" height="107.999996" y="-25.499999" fill-opacity="1"/></g></g></g></g></g></g><g clip-path="url(#cf45f85ceb)"><g clip-path="url(#76c121da12)"><g transform="matrix(1, 0, 0, 1, 150, 13)"><g clip-path="url(#e0ced8e28c)"><g clip-path="url(#da1eb10e7b)"><g clip-path="url(#86b0eddd5d)"><rect x="-191.25" width="270" fill="#64b81c" height="107.999996" y="-29.499999" fill-opacity="1"/></g></g></g></g></g></g></svg>