<svg width="81" height="24" viewBox="0 0 81 24" fill="none" xmlns="http://www.w3.org/2000/svg">
<g clip-path="url(#clip0_93_23)">
<path d="M0.180878 4.74017H2.97025V10.9374H8.85322V4.74017H11.6462V19.9524H8.85322V13.625H2.97025V19.9524H0.180878V4.74017ZM20.4829 14.9975C20.4829 16.271 19.4454 17.3072 18.1723 17.3072C16.8987 17.3072 15.8618 16.271 15.8618 14.9975V8.44814H13.2165V14.9975C13.2165 17.7299 15.4398 19.9524 18.1723 19.9524C20.9042 19.9524 23.1273 17.7299 23.1273 14.9975V8.44814H20.4829V14.9975ZM30.512 8.52486C29.1998 8.52486 28.2838 8.90564 27.3993 9.77392V4.74017H24.7454V14.0691C24.7454 17.561 27.2701 19.9524 30.1065 19.9524C33.2598 19.9524 36.0226 17.5183 36.0226 14.2388C36.0226 11.0008 33.4749 8.52486 30.512 8.52486ZM30.5779 17.4972C28.7796 17.4972 27.4045 15.9953 27.4045 14.2388C27.4045 12.4819 28.7796 10.9795 30.5779 10.9795C32.1017 10.9795 33.4776 12.4819 33.4776 14.2388C33.4776 15.9953 32.1017 17.4972 30.5779 17.4972ZM40.4799 9.19345C40.4799 7.85939 41.3688 7.43642 42.342 7.43642C43.1254 7.43642 44.1621 8.02892 44.8387 8.74861L46.5735 6.7172C45.7065 5.55345 43.9504 4.74908 42.5113 4.74908C39.6331 4.74908 37.5592 6.42095 37.5592 9.19345C37.5592 14.3356 43.8868 12.7056 43.8868 15.5844C43.8868 16.4722 43.0195 17.256 42.0254 17.256C40.4588 17.256 39.9507 16.4941 39.2315 15.6897L37.3054 17.6786C38.5335 19.1813 40.0567 19.9435 41.8768 19.9435C44.6065 19.9435 46.8074 18.2505 46.8074 15.6049C46.8074 9.89142 40.4799 11.6692 40.4799 9.19345ZM53.794 8.3758C50.9579 8.3758 48.4329 10.7658 48.4329 14.2585V23.6114H51.0867V18.5538C51.9713 19.4214 52.8868 19.8028 54.1995 19.8028C57.1623 19.8028 59.7102 17.3272 59.7102 14.0892C59.7102 10.8092 56.9467 8.3758 53.794 8.3758ZM54.2656 17.3485C52.4674 17.3485 51.0921 15.8445 51.0921 14.0892C51.0921 12.3324 52.4674 10.83 54.2656 10.83C55.789 10.83 57.1651 12.3324 57.1651 14.0892C57.1651 15.8445 55.789 17.3485 54.2656 17.3485ZM79.2448 17.4972C77.6795 17.4972 77.2351 16.8203 77.2351 15.783V11.1911H79.6682V8.86361H77.2351V5.79486L74.5484 7.0008V16.3544C74.5484 18.746 76.1984 19.9524 78.4617 19.9524C78.8002 19.9524 79.2663 19.9305 79.5206 19.8678L80.1767 17.4556C79.8804 17.4761 79.542 17.4972 79.2448 17.4972Z" fill="#45535E"/>
<path d="M72.2462 11.3264C71.7375 10.4511 71.0218 9.7494 70.1271 9.22112C69.4586 8.8319 68.7653 8.58487 67.984 8.47877V5.69752C68.7653 5.36581 69.2501 4.63159 69.2501 3.77502C69.2501 2.60752 68.3139 1.66143 67.1473 1.66143C65.9798 1.66143 65.0271 2.60752 65.0271 3.77502C65.0271 4.63159 65.484 5.36581 66.2653 5.69752V8.48002C65.6403 8.57034 64.9921 8.76518 64.4003 9.06456C63.1914 8.14643 59.2273 5.1344 56.9084 3.37518C56.9634 3.1769 57.0057 2.97252 57.0057 2.7569C57.0057 1.46377 55.9586 0.415649 54.665 0.415649C53.3714 0.415649 52.3246 1.46377 52.3246 2.7569C52.3246 4.04987 53.3725 5.09831 54.6661 5.09831C55.1073 5.09831 55.5154 4.96924 55.8676 4.75706L56.357 5.12831L63.0814 9.97331C62.7259 10.2997 62.3948 10.671 62.13 11.0875C61.5932 11.9367 61.2653 12.8711 61.2653 13.8903V14.103C61.2653 14.8185 61.4012 15.4939 61.6328 16.1285C61.8367 16.6825 62.1348 17.1863 62.504 17.6417L60.2723 19.8789C59.9489 19.7585 59.5976 19.7338 59.2605 19.8078C58.9234 19.8817 58.6147 20.0511 58.3714 20.2958C58.2029 20.4635 58.0693 20.6629 57.9784 20.8826C57.8876 21.1023 57.8412 21.3378 57.842 21.5755C57.8421 22.0588 58.0304 22.513 58.3723 22.8547C58.5399 23.0233 58.7392 23.157 58.9588 23.2481C59.1785 23.3391 59.4139 23.3857 59.6517 23.385C59.8895 23.3856 60.125 23.3391 60.3447 23.248C60.5644 23.157 60.7638 23.0233 60.9315 22.8547C61.0999 22.687 61.2334 22.4877 61.3244 22.2681C61.4153 22.0485 61.4618 21.8131 61.4612 21.5755C61.4612 21.3885 61.4323 21.206 61.3779 21.0325L63.6846 18.7255C64.0009 18.9439 64.3425 19.1278 64.7096 19.2864C65.4339 19.5996 66.2332 19.7903 67.1081 19.7903H67.2684C68.2356 19.7903 69.1479 19.5631 70.0056 19.0985C70.9093 18.6074 71.6167 17.9358 72.1511 17.0785C72.6882 16.2188 72.984 15.2689 72.984 14.2239V14.1717C72.984 13.1438 72.7461 12.1953 72.2462 11.3264ZM69.4278 16.166C68.8017 16.8617 68.082 17.2903 67.2684 17.2903H67.1343C66.6696 17.2903 66.2151 17.1619 65.7701 16.9283C65.2686 16.6711 64.8873 16.3042 64.5753 15.8397C64.2528 15.3838 64.0778 14.886 64.0778 14.3581V14.1978C64.0778 13.6789 64.1773 13.1869 64.4282 12.7222C64.6965 12.2142 65.0589 11.8192 65.5407 11.5052C66.0139 11.1933 66.5192 11.0403 67.082 11.0403H67.1343C67.6446 11.0403 68.1278 11.141 68.5837 11.3742C69.0482 11.623 69.4278 11.9628 69.722 12.4099C70.0078 12.8571 70.1778 13.3394 70.2325 13.8649C70.2411 13.9741 70.2454 14.086 70.2454 14.1928C70.2454 14.906 69.9729 15.5664 69.4278 16.166Z" fill="#F8761F"/>
</g>
<defs>
<clipPath id="clip0_93_23">
<rect width="80" height="23.296" fill="white" transform="translate(0.171509 0.407959)"/>
</clipPath>
</defs>
</svg>
